REM DIRINDEX 1\2\4,1\2\5,1\2\6,1\3\7,1\3\8,1\3\9,1\3\10
REM DIRNAME folder01,folder02,folder03,folder04,folder05,folder06,folder07,folder08,folder09,folder10
TITLE ""
FILE "b_75.mp3" MP3
  TRACK 01 AUDIO
    TITLE "0:"
    INDEX 01 00:00:00
  TRACK 02 AUDIO
    TITLE "10:cjc058_5206"
    INDEX 01 00:00:13
  TRACK 03 AUDIO
    TITLE "0:"
    INDEX 01 00:03:66
  TRACK 04 AUDIO
    TITLE "7:cjc058_5207"
    INDEX 01 00:04:38
  TRACK 05 AUDIO
    TITLE "0:"
    INDEX 01 00:06:26
  TRACK 06 AUDIO
    TITLE "8:cjc058_5208"
    INDEX 01 00:06:57
  TRACK 07 AUDIO
    TITLE "0:"
    INDEX 01 00:08:32
  TRACK 08 AUDIO
    TITLE "9:cjc058_5209"
    INDEX 01 00:09:02
  TRACK 09 AUDIO
    TITLE "0:"
    INDEX 01 00:13:51
  TRACK 10 AUDIO
    TITLE "7:cjc058_5210"
    INDEX 01 00:14:58
  TRACK 11 AUDIO
    TITLE "0:"
    INDEX 01 00:16:38
  TRACK 12 AUDIO
    TITLE "8:cjc058_5211"
    INDEX 01 00:16:73
  TRACK 13 AUDIO
    TITLE "0:"
    INDEX 01 00:18:62
  TRACK 14 AUDIO
    TITLE "9:cjc058_5212"
    INDEX 01 00:19:32
  TRACK 15 AUDIO
    TITLE "0:"
    INDEX 01 00:24:20
  TRACK 16 AUDIO
    TITLE "7:cjc058_5213"
    INDEX 01 00:25:29
  TRACK 17 AUDIO
    TITLE "0:"
    INDEX 01 00:27:10
  TRACK 18 AUDIO
    TITLE "8:cjc058_5214"
    INDEX 01 00:27:43
  TRACK 19 AUDIO
    TITLE "0:"
    INDEX 01 00:29:19
  TRACK 20 AUDIO
    TITLE "9:cjc058_5215"
    INDEX 01 00:29:66
  TRACK 21 AUDIO
    TITLE "0:"
    INDEX 01 00:35:02
  TRACK 22 AUDIO
    TITLE "7:cjc058_5216"
    INDEX 01 00:36:11
  TRACK 23 AUDIO
    TITLE "0:"
    INDEX 01 00:37:61
  TRACK 24 AUDIO
    TITLE "8:cjc058_5217"
    INDEX 01 00:38:20
  TRACK 25 AUDIO
    TITLE "0:"
    INDEX 01 00:39:72
  TRACK 26 AUDIO
    TITLE "9:cjc058_5218"
    INDEX 01 00:40:40
  TRACK 27 AUDIO
    TITLE "0:"
    INDEX 01 00:43:74
  TRACK 28 AUDIO
    TITLE "7:cjc058_5219"
    INDEX 01 00:45:08
  TRACK 29 AUDIO
    TITLE "0:"
    INDEX 01 00:46:56
  TRACK 30 AUDIO
    TITLE "8:cjc058_5220"
    INDEX 01 00:47:15
  TRACK 31 AUDIO
    TITLE "0:"
    INDEX 01 00:48:67
  TRACK 32 AUDIO
    TITLE "9:cjc058_5221"
    INDEX 01 00:49:39
  TRACK 33 AUDIO
    TITLE "0:"
    INDEX 01 00:54:50
  TRACK 34 AUDIO
    TITLE "7:cjc058_5222"
    INDEX 01 00:55:57
  TRACK 35 AUDIO
    TITLE "0:"
    INDEX 01 00:57:25
  TRACK 36 AUDIO
    TITLE "8:cjc058_5223"
    INDEX 01 00:57:60
  TRACK 37 AUDIO
    TITLE "0:"
    INDEX 01 01:00:02
  TRACK 38 AUDIO
    TITLE "9:cjc058_5224"
    INDEX 01 01:00:45
  TRACK 39 AUDIO
    TITLE "0:"
    INDEX 01 01:04:41
  TRACK 40 AUDIO
    TITLE "7:cjc058_5225"
    INDEX 01 01:05:52
  TRACK 41 AUDIO
    TITLE "0:"
    INDEX 01 01:07:19
  TRACK 42 AUDIO
    TITLE "8:cjc058_5226"
    INDEX 01 01:07:53
  TRACK 43 AUDIO
    TITLE "0:"
    INDEX 01 01:09:32
  TRACK 44 AUDIO
    TITLE "9:cjc058_5227"
    INDEX 01 01:10:04
  TRACK 45 AUDIO
    TITLE "0:"
    INDEX 01 01:15:11
  TRACK 46 AUDIO
    TITLE "7:cjc058_5228"
    INDEX 01 01:16:20
  TRACK 47 AUDIO
    TITLE "0:"
    INDEX 01 01:17:65
  TRACK 48 AUDIO
    TITLE "8:cjc058_5229"
    INDEX 01 01:18:23
  TRACK 49 AUDIO
    TITLE "0:"
    INDEX 01 01:19:32
  TRACK 50 AUDIO
    TITLE "9:cjc058_5230"
    INDEX 01 01:20:00
  TRACK 51 AUDIO
    TITLE "0:"
    INDEX 01 01:27:06
  TRACK 52 AUDIO
    TITLE "7:cjc058_5231"
    INDEX 01 01:28:10
  TRACK 53 AUDIO
    TITLE "0:"
    INDEX 01 01:30:22
  TRACK 54 AUDIO
    TITLE "8:cjc058_5232"
    INDEX 01 01:30:56
  TRACK 55 AUDIO
    TITLE "0:"
    INDEX 01 01:32:41
  TRACK 56 AUDIO
    TITLE "9:cjc058_5233"
    INDEX 01 01:33:11
  TRACK 57 AUDIO
    TITLE "0:"
    INDEX 01 01:37:64
  TRACK 58 AUDIO
    TITLE "7:cjc058_5234"
    INDEX 01 01:38:73
  TRACK 59 AUDIO
    TITLE "0:"
    INDEX 01 01:40:42
  TRACK 60 AUDIO
    TITLE "8:cjc058_5235"
    INDEX 01 01:40:74
  TRACK 61 AUDIO
    TITLE "0:"
    INDEX 01 01:42:37
  TRACK 62 AUDIO
    TITLE "9:cjc058_5236"
    INDEX 01 01:43:09
  TRACK 63 AUDIO
    TITLE "0:"
    INDEX 01 01:47:50
  TRACK 64 AUDIO
    TITLE "7:cjc058_5237"
    INDEX 01 01:48:56
  TRACK 65 AUDIO
    TITLE "0:"
    INDEX 01 01:50:17
  TRACK 66 AUDIO
    TITLE "8:cjc058_5238"
    INDEX 01 01:50:51
  TRACK 67 AUDIO
    TITLE "0:"
    INDEX 01 01:51:56
  TRACK 68 AUDIO
    TITLE "9:cjc058_5239"
    INDEX 01 01:52:30
  TRACK 69 AUDIO
    TITLE "0:"
    INDEX 01 01:57:02
